<svg width="512" height="512" fill="none" xmlns="http://www.w3.org/2000/svg">
    <path d="M232.727 197.819v23.273h-23.273v34.909h23.273v104.727h46.545V256.001h30.953l3.956-34.909h-34.909v-20.364c0-9.425.931-14.429 15.476-14.429h19.433v-35.026h-31.185c-37.236.001-50.269 17.455-50.269 46.546Z" fill="#fff"/>
    <path d="M256 0C114.615 0 0 114.615 0 256s114.615 256 256 256 256-114.615 256-256S397.385 0 256 0Zm0 488.727C127.468 488.727 23.273 384.532 23.273 256S127.468 23.273 256 23.273 488.727 127.468 488.727 256 384.532 488.727 256 488.727Z" fill="#fff"/>
</svg>
